<mxfile host="Electron" modified="2023-05-24T15:39:13.108Z" agent="Mozilla/5.0 (X11; Linux x86_64) AppleWebKit/537.36 (KHTML, like Gecko) draw.io/21.2.8 Chrome/112.0.5615.165 Electron/24.2.0 Safari/537.36" etag="_hv79J_t866c6_ZyOh8x" version="21.2.8" type="device">
  <diagram name="Page-1" id="XyStaHUmyCmo_L4_eOPi">
    <mxGraphModel dx="1195" dy="729" grid="1" gridSize="10" guides="1" tooltips="1" connect="1" arrows="1" fold="1" page="1" pageScale="1" pageWidth="850" pageHeight="1100" math="0" shadow="0">
      <root>
        <mxCell id="0" />
        <mxCell id="1" parent="0" />
        <mxCell id="Dxq6wAZwNwCFcVrprbkP-21" value="" style="rounded=0;whiteSpace=wrap;html=1;fillColor=#E6E6E6;strokeColor=none;" vertex="1" parent="1">
          <mxGeometry x="238" y="210" width="530" height="60" as="geometry" />
        </mxCell>
        <mxCell id="Dxq6wAZwNwCFcVrprbkP-17" value="" style="rounded=0;whiteSpace=wrap;html=1;strokeColor=none;fillColor=#CCCCCC;" vertex="1" parent="1">
          <mxGeometry x="240" y="270" width="530" height="60" as="geometry" />
        </mxCell>
        <mxCell id="Dxq6wAZwNwCFcVrprbkP-13" value="" style="rounded=0;whiteSpace=wrap;html=1;strokeColor=none;fillColor=#E6E6E6;" vertex="1" parent="1">
          <mxGeometry x="240" y="330" width="530" height="60" as="geometry" />
        </mxCell>
        <mxCell id="Dxq6wAZwNwCFcVrprbkP-8" value="" style="rounded=0;whiteSpace=wrap;html=1;strokeColor=none;fillColor=#CCCCCC;" vertex="1" parent="1">
          <mxGeometry x="240" y="390" width="530" height="60" as="geometry" />
        </mxCell>
        <mxCell id="Dxq6wAZwNwCFcVrprbkP-7" value="" style="rounded=0;whiteSpace=wrap;html=1;fillColor=#E6E6E6;strokeColor=none;" vertex="1" parent="1">
          <mxGeometry x="240" y="450" width="530" height="60" as="geometry" />
        </mxCell>
        <mxCell id="Dxq6wAZwNwCFcVrprbkP-1" value="&lt;font style=&quot;font-size: 14px;&quot;&gt;Camada 2 - Data Link&lt;/font&gt;" style="rounded=0;whiteSpace=wrap;html=1;align=left;fillStyle=solid;fillColor=#CCCCCC;strokeColor=none;" vertex="1" parent="1">
          <mxGeometry x="50" y="510" width="180" height="60" as="geometry" />
        </mxCell>
        <mxCell id="Dxq6wAZwNwCFcVrprbkP-2" value="" style="rounded=0;whiteSpace=wrap;html=1;strokeColor=none;fillColor=#CCCCCC;" vertex="1" parent="1">
          <mxGeometry x="240" y="510" width="530" height="60" as="geometry" />
        </mxCell>
        <mxCell id="Dxq6wAZwNwCFcVrprbkP-4" value="" style="endArrow=classic;html=1;rounded=0;strokeWidth=5;strokeColor=#F8961E;" edge="1" parent="1">
          <mxGeometry width="50" height="50" relative="1" as="geometry">
            <mxPoint x="280" y="590" as="sourcePoint" />
            <mxPoint x="280" y="170" as="targetPoint" />
          </mxGeometry>
        </mxCell>
        <mxCell id="Dxq6wAZwNwCFcVrprbkP-5" value="&lt;font style=&quot;font-size: 14px;&quot;&gt;Camada 3 - Rede&lt;/font&gt;" style="rounded=0;whiteSpace=wrap;html=1;align=left;fillStyle=solid;fillColor=#E6E6E6;strokeColor=none;" vertex="1" parent="1">
          <mxGeometry x="50" y="450" width="180" height="60" as="geometry" />
        </mxCell>
        <mxCell id="Dxq6wAZwNwCFcVrprbkP-10" value="&lt;font style=&quot;font-size: 14px;&quot;&gt;Camada 4 - Transporte&lt;/font&gt;" style="rounded=0;whiteSpace=wrap;html=1;align=left;fillStyle=solid;fillColor=#CCCCCC;strokeColor=none;" vertex="1" parent="1">
          <mxGeometry x="50" y="390" width="180" height="60" as="geometry" />
        </mxCell>
        <mxCell id="Dxq6wAZwNwCFcVrprbkP-12" value="&lt;font style=&quot;font-size: 14px;&quot;&gt;Camada 7 - Aplicação&lt;/font&gt;" style="rounded=0;whiteSpace=wrap;html=1;align=left;fillStyle=solid;fillColor=#E6E6E6;strokeColor=none;" vertex="1" parent="1">
          <mxGeometry x="50" y="330" width="180" height="60" as="geometry" />
        </mxCell>
        <mxCell id="Dxq6wAZwNwCFcVrprbkP-16" value="&lt;span style=&quot;font-size: 14px;&quot;&gt;Segurança da Mensagem&lt;/span&gt;" style="rounded=0;whiteSpace=wrap;html=1;align=left;fillStyle=solid;fillColor=#CCCCCC;strokeColor=none;" vertex="1" parent="1">
          <mxGeometry x="50" y="270" width="180" height="60" as="geometry" />
        </mxCell>
        <mxCell id="Dxq6wAZwNwCFcVrprbkP-20" value="&lt;span style=&quot;font-size: 14px;&quot;&gt;Codificação da Mensagem&lt;/span&gt;" style="rounded=0;whiteSpace=wrap;html=1;align=left;fillStyle=solid;fillColor=#E6E6E6;strokeColor=none;" vertex="1" parent="1">
          <mxGeometry x="50" y="210" width="180" height="60" as="geometry" />
        </mxCell>
        <mxCell id="Dxq6wAZwNwCFcVrprbkP-26" value="" style="endArrow=classic;html=1;rounded=0;strokeWidth=5;strokeColor=#43AA8B;" edge="1" parent="1">
          <mxGeometry width="50" height="50" relative="1" as="geometry">
            <mxPoint x="730" y="590" as="sourcePoint" />
            <mxPoint x="730" y="170" as="targetPoint" />
          </mxGeometry>
        </mxCell>
        <mxCell id="Dxq6wAZwNwCFcVrprbkP-24" value="&lt;font face=&quot;Garamond&quot;&gt;&lt;span style=&quot;font-size: 14px;&quot;&gt;WS Secure Conversation&lt;/span&gt;&lt;/font&gt;" style="rounded=0;whiteSpace=wrap;html=1;" vertex="1" parent="1">
          <mxGeometry x="590" y="280" width="160" height="40" as="geometry" />
        </mxCell>
        <mxCell id="Dxq6wAZwNwCFcVrprbkP-28" value="&lt;div&gt;&lt;span style=&quot;font-size: 14px;&quot;&gt;&lt;br&gt;&lt;/span&gt;&lt;/div&gt;" style="rounded=0;whiteSpace=wrap;html=1;fillColor=#277DA1;strokeColor=none;fillOpacity=30;align=left;" vertex="1" parent="1">
          <mxGeometry x="50" y="80" width="180" height="80" as="geometry" />
        </mxCell>
        <mxCell id="Dxq6wAZwNwCFcVrprbkP-29" value="&lt;font style=&quot;font-size: 14px;&quot; face=&quot;Garamond&quot;&gt;TCP/IP&lt;br&gt;UA-SC&lt;br&gt;UA-Binary&lt;br&gt;&lt;br&gt;&lt;/font&gt;" style="rounded=0;whiteSpace=wrap;html=1;fillColor=#277DA1;strokeColor=none;fillOpacity=30;" vertex="1" parent="1">
          <mxGeometry x="240" y="80" width="80" height="80" as="geometry" />
        </mxCell>
        <mxCell id="Dxq6wAZwNwCFcVrprbkP-31" value="SOAP-HTTP&lt;br&gt;WS-SC&lt;br&gt;UA-Binary&lt;br&gt;&amp;nbsp;" style="rounded=0;whiteSpace=wrap;html=1;fillColor=#277DA1;strokeColor=none;fillOpacity=30;fontFamily=Garamond;fontSize=14;" vertex="1" parent="1">
          <mxGeometry x="330" y="80" width="80" height="80" as="geometry" />
        </mxCell>
        <mxCell id="Dxq6wAZwNwCFcVrprbkP-36" value="HTTPS&lt;br&gt;&lt;br&gt;UA-Binary&lt;br&gt;&amp;nbsp;" style="rounded=0;whiteSpace=wrap;html=1;fillColor=#277DA1;strokeColor=none;fillOpacity=30;fontFamily=Garamond;fontSize=14;" vertex="1" parent="1">
          <mxGeometry x="420" y="80" width="80" height="80" as="geometry" />
        </mxCell>
        <mxCell id="Dxq6wAZwNwCFcVrprbkP-37" value="SOAP-HTTP&lt;br&gt;WS-SC&lt;br&gt;UA-Binary&lt;br&gt;UA-XML" style="rounded=0;whiteSpace=wrap;html=1;fillColor=#277DA1;strokeColor=none;fillOpacity=30;fontFamily=Garamond;fontSize=14;" vertex="1" parent="1">
          <mxGeometry x="510" y="80" width="80" height="80" as="geometry" />
        </mxCell>
        <mxCell id="Dxq6wAZwNwCFcVrprbkP-38" value="HTTPS&lt;br&gt;&lt;br&gt;&lt;br&gt;UA-XML" style="rounded=0;whiteSpace=wrap;html=1;fillColor=#277DA1;strokeColor=none;fillOpacity=30;fontFamily=Garamond;fontSize=14;" vertex="1" parent="1">
          <mxGeometry x="600" y="80" width="80" height="80" as="geometry" />
        </mxCell>
        <mxCell id="Dxq6wAZwNwCFcVrprbkP-39" value="SOAP-HTTP&lt;br&gt;WS-SC&lt;br&gt;&lt;br&gt;UA-XML" style="rounded=0;whiteSpace=wrap;html=1;fillColor=#277DA1;strokeColor=none;fillOpacity=30;fontFamily=Garamond;fontSize=14;" vertex="1" parent="1">
          <mxGeometry x="690" y="80" width="80" height="80" as="geometry" />
        </mxCell>
        <mxCell id="Dxq6wAZwNwCFcVrprbkP-40" value="" style="endArrow=classic;html=1;rounded=0;strokeWidth=5;strokeColor=#43AA8B;exitX=0.841;exitY=0.016;exitDx=0;exitDy=0;exitPerimeter=0;" edge="1" parent="1" source="Dxq6wAZwNwCFcVrprbkP-18">
          <mxGeometry width="50" height="50" relative="1" as="geometry">
            <mxPoint x="369" y="280" as="sourcePoint" />
            <mxPoint x="369.47" y="170" as="targetPoint" />
          </mxGeometry>
        </mxCell>
        <mxCell id="Dxq6wAZwNwCFcVrprbkP-18" value="&lt;font face=&quot;Garamond&quot;&gt;&lt;span style=&quot;font-size: 14px;&quot;&gt;UA Secure Conversation&lt;/span&gt;&lt;/font&gt;" style="rounded=0;whiteSpace=wrap;html=1;" vertex="1" parent="1">
          <mxGeometry x="260" y="280" width="130" height="40" as="geometry" />
        </mxCell>
        <mxCell id="Dxq6wAZwNwCFcVrprbkP-44" value="" style="endArrow=none;html=1;rounded=0;strokeWidth=5;strokeColor=#F8961E;endFill=0;" edge="1" parent="1">
          <mxGeometry width="50" height="50" relative="1" as="geometry">
            <mxPoint x="642" y="264" as="sourcePoint" />
            <mxPoint x="503" y="264" as="targetPoint" />
          </mxGeometry>
        </mxCell>
        <mxCell id="Dxq6wAZwNwCFcVrprbkP-45" value="" style="endArrow=classic;html=1;rounded=0;strokeWidth=5;strokeColor=#F8961E;" edge="1" parent="1">
          <mxGeometry width="50" height="50" relative="1" as="geometry">
            <mxPoint x="640" y="266" as="sourcePoint" />
            <mxPoint x="639.76" y="170" as="targetPoint" />
          </mxGeometry>
        </mxCell>
        <mxCell id="Dxq6wAZwNwCFcVrprbkP-47" value="" style="endArrow=classic;html=1;rounded=0;strokeWidth=5;strokeColor=#43AA8B;" edge="1" parent="1">
          <mxGeometry width="50" height="50" relative="1" as="geometry">
            <mxPoint x="550" y="301" as="sourcePoint" />
            <mxPoint x="549.66" y="170" as="targetPoint" />
          </mxGeometry>
        </mxCell>
        <mxCell id="Dxq6wAZwNwCFcVrprbkP-48" value="" style="endArrow=none;html=1;rounded=0;strokeWidth=5;strokeColor=#43AA8B;endFill=0;entryX=1;entryY=0.5;entryDx=0;entryDy=0;" edge="1" parent="1" target="Dxq6wAZwNwCFcVrprbkP-18">
          <mxGeometry width="50" height="50" relative="1" as="geometry">
            <mxPoint x="590" y="299.8" as="sourcePoint" />
            <mxPoint x="451" y="299.8" as="targetPoint" />
          </mxGeometry>
        </mxCell>
        <mxCell id="Dxq6wAZwNwCFcVrprbkP-49" value="" style="endArrow=none;html=1;rounded=0;strokeWidth=5;strokeColor=#43AA8B;endFill=0;" edge="1" parent="1">
          <mxGeometry width="50" height="50" relative="1" as="geometry">
            <mxPoint x="430.34000000000003" y="301" as="sourcePoint" />
            <mxPoint x="430" y="216" as="targetPoint" />
          </mxGeometry>
        </mxCell>
        <mxCell id="Dxq6wAZwNwCFcVrprbkP-42" value="" style="endArrow=classic;html=1;rounded=0;strokeWidth=5;strokeColor=#F8961E;" edge="1" parent="1">
          <mxGeometry width="50" height="50" relative="1" as="geometry">
            <mxPoint x="459.79999999999995" y="590" as="sourcePoint" />
            <mxPoint x="459.79999999999995" y="170" as="targetPoint" />
          </mxGeometry>
        </mxCell>
        <mxCell id="Dxq6wAZwNwCFcVrprbkP-43" value="" style="endArrow=none;html=1;rounded=0;strokeWidth=5;strokeColor=#F8961E;endFill=0;" edge="1" parent="1">
          <mxGeometry width="50" height="50" relative="1" as="geometry">
            <mxPoint x="504.79999999999995" y="590" as="sourcePoint" />
            <mxPoint x="505" y="262" as="targetPoint" />
          </mxGeometry>
        </mxCell>
        <mxCell id="Dxq6wAZwNwCFcVrprbkP-51" value="" style="endArrow=none;html=1;rounded=0;strokeWidth=5;strokeColor=#43AA8B;endFill=0;" edge="1" parent="1">
          <mxGeometry width="50" height="50" relative="1" as="geometry">
            <mxPoint x="669.66" y="590" as="sourcePoint" />
            <mxPoint x="670" y="380" as="targetPoint" />
          </mxGeometry>
        </mxCell>
        <mxCell id="Dxq6wAZwNwCFcVrprbkP-52" value="" style="endArrow=none;html=1;rounded=0;strokeWidth=5;strokeColor=#43AA8B;endFill=0;entryX=0.127;entryY=1;entryDx=0;entryDy=0;entryPerimeter=0;" edge="1" parent="1" target="Dxq6wAZwNwCFcVrprbkP-24">
          <mxGeometry width="50" height="50" relative="1" as="geometry">
            <mxPoint x="610" y="520" as="sourcePoint" />
            <mxPoint x="610.34" y="375" as="targetPoint" />
          </mxGeometry>
        </mxCell>
        <mxCell id="Dxq6wAZwNwCFcVrprbkP-22" value="&lt;font face=&quot;Garamond&quot;&gt;&lt;span style=&quot;font-size: 14px;&quot;&gt;UA-Binary&lt;/span&gt;&lt;/font&gt;" style="rounded=0;whiteSpace=wrap;html=1;" vertex="1" parent="1">
          <mxGeometry x="260" y="225" width="230" height="30" as="geometry" />
        </mxCell>
        <mxCell id="Dxq6wAZwNwCFcVrprbkP-25" value="&lt;font face=&quot;Garamond&quot;&gt;&lt;span style=&quot;font-size: 14px;&quot;&gt;UA-XML&lt;/span&gt;&lt;/font&gt;" style="rounded=0;whiteSpace=wrap;html=1;" vertex="1" parent="1">
          <mxGeometry x="520" y="225" width="230" height="30" as="geometry" />
        </mxCell>
        <mxCell id="Dxq6wAZwNwCFcVrprbkP-15" value="&lt;font face=&quot;Garamond&quot;&gt;&lt;span style=&quot;font-size: 14px;&quot;&gt;SOAP 1.2&lt;/span&gt;&lt;/font&gt;" style="rounded=0;whiteSpace=wrap;html=1;" vertex="1" parent="1">
          <mxGeometry x="550" y="340" width="200" height="20" as="geometry" />
        </mxCell>
        <mxCell id="Dxq6wAZwNwCFcVrprbkP-14" value="&lt;font face=&quot;Garamond&quot;&gt;&lt;span style=&quot;font-size: 14px;&quot;&gt;HTTP&lt;/span&gt;&lt;/font&gt;" style="rounded=0;whiteSpace=wrap;html=1;" vertex="1" parent="1">
          <mxGeometry x="360" y="360" width="390" height="20" as="geometry" />
        </mxCell>
        <mxCell id="Dxq6wAZwNwCFcVrprbkP-11" value="&lt;font face=&quot;Garamond&quot;&gt;&lt;span style=&quot;font-size: 14px;&quot;&gt;SSL/TLS&lt;/span&gt;&lt;/font&gt;" style="rounded=0;whiteSpace=wrap;html=1;" vertex="1" parent="1">
          <mxGeometry x="430" y="400" width="100" height="20" as="geometry" />
        </mxCell>
        <mxCell id="Dxq6wAZwNwCFcVrprbkP-9" value="&lt;font face=&quot;Garamond&quot;&gt;&lt;span style=&quot;font-size: 14px;&quot;&gt;TCP&lt;/span&gt;&lt;/font&gt;" style="rounded=0;whiteSpace=wrap;html=1;" vertex="1" parent="1">
          <mxGeometry x="260" y="420" width="490" height="20" as="geometry" />
        </mxCell>
        <mxCell id="Dxq6wAZwNwCFcVrprbkP-6" value="&lt;font face=&quot;Garamond&quot;&gt;&lt;span style=&quot;font-size: 14px;&quot;&gt;IP&lt;/span&gt;&lt;/font&gt;" style="rounded=0;whiteSpace=wrap;html=1;" vertex="1" parent="1">
          <mxGeometry x="260" y="460" width="490" height="40" as="geometry" />
        </mxCell>
        <mxCell id="Dxq6wAZwNwCFcVrprbkP-3" value="&lt;font style=&quot;font-size: 14px;&quot; face=&quot;Garamond&quot;&gt;Ethernet&lt;/font&gt;" style="rounded=0;whiteSpace=wrap;html=1;" vertex="1" parent="1">
          <mxGeometry x="260" y="520" width="490" height="40" as="geometry" />
        </mxCell>
        <mxCell id="Dxq6wAZwNwCFcVrprbkP-50" value="" style="endArrow=none;html=1;rounded=0;strokeWidth=5;strokeColor=#43AA8B;endFill=0;entryX=1;entryY=0.5;entryDx=0;entryDy=0;" edge="1" parent="1">
          <mxGeometry width="50" height="50" relative="1" as="geometry">
            <mxPoint x="551" y="217" as="sourcePoint" />
            <mxPoint x="428" y="217.2" as="targetPoint" />
          </mxGeometry>
        </mxCell>
        <mxCell id="Dxq6wAZwNwCFcVrprbkP-53" value="&lt;ul style=&quot;border-color: var(--border-color); text-align: left; font-size: 14px;&quot;&gt;&lt;li style=&quot;border-color: var(--border-color);&quot;&gt;&lt;font style=&quot;border-color: var(--border-color);&quot; face=&quot;Garamond&quot;&gt;Autenticação&lt;/font&gt;&lt;/li&gt;&lt;li style=&quot;border-color: var(--border-color);&quot;&gt;&lt;font style=&quot;font-size: 14px;&quot; face=&quot;Garamond&quot;&gt;Autorização&lt;/font&gt;&lt;/li&gt;&lt;li style=&quot;border-color: var(--border-color);&quot;&gt;&lt;font style=&quot;border-color: var(--border-color);&quot; face=&quot;Garamond&quot;&gt;Confidencialidade&lt;/font&gt;&lt;/li&gt;&lt;li style=&quot;border-color: var(--border-color);&quot;&gt;&lt;font style=&quot;border-color: var(--border-color);&quot; face=&quot;Garamond&quot;&gt;Disponibilidade&lt;/font&gt;&lt;/li&gt;&lt;li style=&quot;border-color: var(--border-color);&quot;&gt;&lt;span style=&quot;border-color: var(--border-color);&quot;&gt;&lt;font style=&quot;font-size: 14px;&quot; face=&quot;Garamond&quot;&gt;Integridade&lt;/font&gt;&lt;/span&gt;&lt;/li&gt;&lt;li style=&quot;border-color: var(--border-color);&quot;&gt;&lt;font face=&quot;Garamond&quot;&gt;Auditoria&lt;/font&gt;&lt;/li&gt;&lt;/ul&gt;" style="text;html=1;strokeColor=none;fillColor=none;align=center;verticalAlign=middle;whiteSpace=wrap;rounded=0;" vertex="1" parent="1">
          <mxGeometry x="50" y="40" width="180" height="120" as="geometry" />
        </mxCell>
        <mxCell id="Dxq6wAZwNwCFcVrprbkP-54" value="" style="rounded=0;whiteSpace=wrap;html=1;fillColor=#277DA1;strokeColor=none;fillOpacity=30;" vertex="1" parent="1">
          <mxGeometry x="50" y="70" width="180" height="10" as="geometry" />
        </mxCell>
        <mxCell id="Dxq6wAZwNwCFcVrprbkP-55" value="OPC UA" style="rounded=0;whiteSpace=wrap;html=1;fillColor=#277DA1;strokeColor=none;fillOpacity=30;" vertex="1" parent="1">
          <mxGeometry x="50" y="40" width="720" height="30" as="geometry" />
        </mxCell>
      </root>
    </mxGraphModel>
  </diagram>
</mxfile>
